<svg width="1280" height="738" viewBox="0 0 1280 738" fill="none" xmlns="http://www.w3.org/2000/svg">
<g clip-path="url(#clip0_2_279)">
<rect width="1280" height="738" fill="white"/>
<path d="M555 120.42C847.4 -72.78 1224.5 69.92 1376.5 165.42C1516.33 53.0867 1798.5 -175.78 1808.5 -192.58C1821 -213.58 376.5 -209.08 271 -217.08C186.6 -223.48 -121.5 -170.08 -265 -142.58C-386 -22.2466 -544.1 227.22 -208.5 262.42C211 306.42 189.5 361.92 555 120.42Z" fill="#505561"/>
<path d="M378.5 662.42C206.5 752.02 -97.5001 707.753 -228 674.42C-213.5 726.92 -177 834.42 -147 844.42C-109.5 856.92 637 1030.42 780 1055.42C923 1080.42 1483.5 960.42 1492 947.92C1498.8 937.92 1519.5 705.087 1529 589.92C1363.5 596.087 994.4 601.42 842 573.42C651.5 538.42 593.5 550.42 378.5 662.42Z" fill="#505561"/>
<path d="M1111 552.42C1245 434.82 1359.83 453.753 1400.5 477.92L1372 804.92L418.634 859.79C411.271 860.571 404.665 860.92 399 860.92L418.634 859.79C472.361 854.089 566.382 825.349 629 740.92C718 620.92 943.5 699.42 1111 552.42Z" fill="#FFAC42"/>
<path d="M208.5 28.92C220.1 -145.08 445.333 -236.58 556.5 -260.58C424.667 -283.413 154.8 -327.78 130 -322.58C99 -316.08 -373 39.42 -399.5 80.92C-420.7 114.12 -270.667 396.753 -193 533.92C-201.833 480.087 -186.4 361.72 -54 318.92C111.5 265.42 194 246.42 208.5 28.92Z" fill="#FFAC42"/>
</g>
<defs>
<clipPath id="clip0_2_279">
<rect width="1280" height="738" fill="white"/>
</clipPath>
</defs>
</svg>
