<svg width="221" height="73" viewBox="0 0 221 73" fill="none" xmlns="http://www.w3.org/2000/svg">
<circle cx="21.0643" cy="21.0643" r="21.0643" fill="#505561"/>
<circle cx="59.2832" cy="24.2631" r="12.348" fill="#505561"/>
<circle cx="9.31921" cy="54.7755" r="6.63202" fill="#505561"/>
<circle cx="44.156" cy="54.5815" r="17.4325" fill="#505561"/>
<path d="M92.9789 35.5698V12.2971H100.783C102.587 12.2971 104.068 12.6077 105.226 13.2289C106.384 13.8425 107.241 14.6872 107.797 15.763C108.354 16.8387 108.632 18.0622 108.632 19.4334C108.632 20.8046 108.354 22.0205 107.797 23.0812C107.241 24.1418 106.388 24.9751 105.237 25.5812C104.087 26.1796 102.617 26.4789 100.828 26.4789H94.5126V23.9334H100.738C101.971 23.9334 102.963 23.7516 103.715 23.388C104.474 23.0243 105.023 22.5092 105.361 21.8425C105.707 21.1683 105.88 20.3652 105.88 19.4334C105.88 18.5016 105.707 17.6872 105.361 16.9902C105.016 16.2933 104.463 15.7554 103.704 15.3766C102.944 14.9902 101.941 14.7971 100.693 14.7971H95.7756V35.5698H92.9789ZM103.85 25.1152L109.534 35.5698H106.286L100.693 25.1152H103.85Z" fill="#505561"/>
<path d="M128.449 12.2971H131.246V27.7062C131.246 29.2971 130.873 30.7175 130.129 31.9675C129.392 33.2099 128.351 34.191 127.005 34.9107C125.66 35.6228 124.081 35.9789 122.269 35.9789C120.457 35.9789 118.878 35.6228 117.532 34.9107C116.187 34.191 115.142 33.2099 114.397 31.9675C113.66 30.7175 113.292 29.2971 113.292 27.7062V12.2971H116.089V27.4789C116.089 28.6152 116.337 29.6266 116.833 30.513C117.329 31.3918 118.036 32.0849 118.953 32.5925C119.878 33.0925 120.983 33.3425 122.269 33.3425C123.554 33.3425 124.66 33.0925 125.584 32.5925C126.509 32.0849 127.216 31.3918 127.704 30.513C128.201 29.6266 128.449 28.6152 128.449 27.4789V12.2971Z" fill="#505561"/>
<path d="M136.831 35.5698V12.2971H150.769V14.7971H139.627V22.6607H150.048V25.1607H139.627V33.0698H150.95V35.5698H136.831Z" fill="#505561"/>
<path d="M155.81 35.5698V12.2971H158.607V33.0698H169.343V35.5698H155.81Z" fill="#505561"/>
<path d="M176.47 12.2971V35.5698H173.673V12.2971H176.47Z" fill="#505561"/>
<path d="M180.815 14.7971V12.2971H198.137V14.7971H190.874V35.5698H188.077V14.7971H180.815Z" fill="#505561"/>
<path d="M220.979 23.9334C220.979 26.388 220.539 28.5092 219.659 30.2971C218.78 32.0849 217.573 33.4637 216.039 34.4334C214.506 35.4031 212.754 35.888 210.784 35.888C208.814 35.888 207.063 35.4031 205.529 34.4334C203.995 33.4637 202.789 32.0849 201.909 30.2971C201.029 28.5092 200.59 26.388 200.59 23.9334C200.59 21.4789 201.029 19.3577 201.909 17.5698C202.789 15.7819 203.995 14.4031 205.529 13.4334C207.063 12.4637 208.814 11.9789 210.784 11.9789C212.754 11.9789 214.506 12.4637 216.039 13.4334C217.573 14.4031 218.78 15.7819 219.659 17.5698C220.539 19.3577 220.979 21.4789 220.979 23.9334ZM218.272 23.9334C218.272 21.9183 217.938 20.2175 217.269 18.8312C216.607 17.4448 215.709 16.3955 214.573 15.6834C213.446 14.9713 212.183 14.6152 210.784 14.6152C209.386 14.6152 208.119 14.9713 206.984 15.6834C205.856 16.3955 204.958 17.4448 204.288 18.8312C203.627 20.2175 203.296 21.9183 203.296 23.9334C203.296 25.9486 203.627 27.6493 204.288 29.0357C204.958 30.4221 205.856 31.4713 206.984 32.1834C208.119 32.8956 209.386 33.2516 210.784 33.2516C212.183 33.2516 213.446 32.8956 214.573 32.1834C215.709 31.4713 216.607 30.4221 217.269 29.0357C217.938 27.6493 218.272 25.9486 218.272 23.9334Z" fill="#505561"/>
<path d="M92.9789 42.2051H95.2666L99.842 49.9295H100.035L104.611 42.2051H106.898L100.937 51.9333V58.7526H98.9398V51.9333L92.9789 42.2051Z" fill="#505561"/>
<path d="M109.621 43.9827V42.2051H121.994V43.9827H116.806V58.7526H114.809V43.9827H109.621Z" fill="#505561"/>
<path d="M123.827 58.7526H121.732L127.79 42.2051H129.852L135.909 58.7526H133.815L128.885 44.823H128.756L123.827 58.7526ZM124.6 52.2888H133.042V54.0663H124.6V52.2888Z" fill="#505561"/>
<path d="M150.979 47.3762H148.981C148.863 46.7999 148.656 46.2935 148.361 45.8572C148.071 45.4209 147.716 45.0546 147.298 44.7583C146.884 44.4567 146.425 44.2305 145.92 44.0796C145.415 43.9288 144.889 43.8534 144.341 43.8534C143.342 43.8534 142.438 44.1066 141.627 44.6129C140.821 45.1192 140.179 45.8653 139.701 46.851C139.229 47.8368 138.993 49.0461 138.993 50.4789C138.993 51.9117 139.229 53.121 139.701 54.1067C140.179 55.0925 140.821 55.8385 141.627 56.3449C142.438 56.8512 143.342 57.1044 144.341 57.1044C144.889 57.1044 145.415 57.0289 145.92 56.8781C146.425 56.7273 146.884 56.5038 147.298 56.2075C147.716 55.9058 148.071 55.5369 148.361 55.1006C148.656 54.6589 148.863 54.1525 148.981 53.5815H150.979C150.829 54.4272 150.555 55.184 150.157 55.852C149.76 56.5199 149.266 57.0882 148.675 57.5568C148.084 58.0201 147.421 58.3729 146.685 58.6153C145.955 58.8577 145.174 58.9789 144.341 58.9789C142.934 58.9789 141.683 58.6341 140.588 57.9447C139.492 57.2552 138.63 56.2748 138.002 55.0036C137.374 53.7324 137.059 52.2241 137.059 50.4789C137.059 48.7336 137.374 47.2254 138.002 45.9542C138.63 44.6829 139.492 43.7026 140.588 43.0131C141.683 42.3236 142.934 41.9789 144.341 41.9789C145.174 41.9789 145.955 42.1001 146.685 42.3425C147.421 42.5849 148.084 42.9404 148.675 43.409C149.266 43.8723 149.76 44.4378 150.157 45.1058C150.555 45.7683 150.829 46.5251 150.979 47.3762Z" fill="#505561"/>
</svg>
