<svg width="14" height="21" viewBox="0 0 14 21" fill="none" xmlns="http://www.w3.org/2000/svg">
<path fill-rule="evenodd" clip-rule="evenodd" d="M4.48692 0.228383C4.39639 0.346746 4.29822 0.675686 4.26847 0.959552L4.21469 1.47567L2.24267 1.56169C0.592369 1.6336 0.242008 1.69691 0.0954666 1.94878C-0.0319811 2.16796 -0.031822 2.33174 0.095944 2.55092C0.258714 2.82997 0.765005 2.85199 6.99913 2.85199C13.2332 2.85199 13.7395 2.82997 13.9023 2.55092C14.0301 2.33174 14.0302 2.16796 13.9028 1.94878C13.7562 1.69691 13.4059 1.6336 11.7556 1.56169L9.78356 1.47567L9.72979 0.959552C9.70003 0.675686 9.60186 0.346746 9.51133 0.228383C9.27839 -0.0761276 4.71986 -0.0761276 4.48692 0.228383ZM0.248213 4.75664C-0.257123 5.30321 0.152746 6.03473 0.964211 6.03473H1.43025V12.9249C1.43025 20.1668 1.47066 20.612 2.15341 20.8954C2.48961 21.0349 11.5086 21.0349 11.8448 20.8954C12.5276 20.612 12.568 20.1668 12.568 12.9249V6.03473H13.034C13.4915 6.03473 14 5.66002 14 5.323C14 5.22889 13.9259 5.00214 13.8353 4.81909C13.6765 4.49841 13.4331 4.48637 7.08441 4.48637C1.30916 4.48637 0.467468 4.51957 0.248213 4.75664ZM5.53006 12.6583C5.56856 17.0343 5.54756 17.495 5.30078 17.6904C4.9345 17.9803 4.82535 17.9636 4.45335 17.5614C4.15168 17.2352 4.13513 16.988 4.13513 12.8189C4.13513 10.0331 4.19734 8.29499 4.30474 8.07787C4.43044 7.82394 4.60594 7.74876 4.98096 7.78816L5.48757 7.84115L5.53006 12.6583ZM9.69844 8.08785C9.87601 8.4469 9.93647 16.8106 9.76479 17.294C9.60902 17.7333 9.11705 17.9462 8.74934 17.7334C8.4429 17.5561 8.43112 17.3732 8.43112 12.7668C8.43112 10.1367 8.47886 7.93284 8.53725 7.86988C8.76939 7.6187 9.53758 7.76287 9.69844 8.08785Z" fill="#C8C8C8"/>
</svg>
